# xmcd CD database file
#
# Track frame offsets:
#	150
#	18565
#	30048
#	55592
#	84055
#	105683
#	129279
#	148323
#	165751
#	186716
#	205786
#	220178
#	239521
#	265584
#
# Disc length: 3822 seconds
#
# Revision: 0
# Processed by: cddbd v1.5PL3 Copyright (c) Steve Scherf et al.
# Submitted via: CDex 1.51
#
DISCID=b20eec0e
DTITLE=Dax Johnson - Levity
DYEAR=2004
DGENRE=New Age
TTITLE0=Levity
TTITLE1=child's garden
TTITLE2=Jadynn's lullaby
TTITLE3=Zavior dax
TTITLE4=Ma belle danceur (emma rain)
TTITLE5=Greysen (slow beginning)
TTITLE6=Song in a minor I (logan)
TTITLE7=Invention II - The art of percepion (laden)
TTITLE8=Syncrony
TTITLE9=Song in a minor II
TTITLE10=Bright eyes
TTITLE11=Sleeping sisera
TTITLE12=Still small voice
TTITLE13=This present place (Philippians 4:6:7)
EXTD=YEAR: 2004
EXTT0=
EXTT1=
EXTT2=
EXTT3=
EXTT4=
EXTT5=
EXTT6=
EXTT7=
EXTT8=
EXTT9=
EXTT10=
EXTT11=
EXTT12=
EXTT13=
PLAYORDER=
